<svg width="300" height="210" viewBox="0 0 300 210" fill="none" xmlns="http://www.w3.org/2000/svg">
<g clip-path="url(#clip0_12_131)">
<path d="M264.93 204.681L259.911 204.681L257.523 185.322L264.931 185.323L264.93 204.681Z" fill="#FFB8B8"/>
<path d="M266.21 209.547L250.027 209.546V209.341C250.027 207.671 250.69 206.069 251.872 204.887C253.053 203.706 254.655 203.042 256.326 203.042H256.326L266.21 203.043L266.21 209.547Z" fill="#2F2E41"/>
<path d="M287.081 192.342L283.823 196.16L267.547 185.411L272.355 179.776L287.081 192.342Z" fill="#FFB8B8"/>
<path d="M291.613 194.527L281.108 206.837L280.953 206.704C279.682 205.62 278.894 204.075 278.762 202.41C278.63 200.744 279.165 199.095 280.249 197.824L280.25 197.824L286.666 190.305L291.613 194.527Z" fill="#2F2E41"/>
<path d="M229.293 109.477L227.731 123.886L290.886 122.985L263.344 78.1072L240.856 77.2994L229.293 109.477Z" fill="#2F2E41"/>
<path opacity="0.28" d="M229.293 109.477L227.731 123.886L290.886 122.985L263.344 78.1072L240.856 77.2994L229.293 109.477Z" fill="black"/>
<path d="M241.712 111.951L239.482 125.135V136.919L257.459 142.787C257.459 142.787 255.355 188.559 258.16 191.474L258.091 198.512L265.934 198.868L265.997 193.915L269.322 156.894L271.281 129.713L268.106 109.105L241.712 111.951Z" fill="#2F2E41"/>
<path d="M255.639 123.3L239.482 136.919C239.482 136.919 238.537 161.491 240.938 164.372C243.001 166.847 269.825 188.196 269.825 188.196C269.825 188.196 274.593 192.569 277.265 192.639C279.937 192.708 283.044 187.105 283.044 187.105L276.856 182.403C276.856 182.403 260.826 167.44 256.067 161.491C254.146 159.089 254.146 158.849 254.146 158.849L254.802 148.863L261.405 130.33L255.639 123.3Z" fill="#2F2E41"/>
<path d="M238.486 58.0633L231.52 57.4196L225.201 58.4726L211.821 58.4768L210.681 68.1742L222.891 70.9065L225.867 69.4482L238.27 74.1739L238.486 58.0633Z" fill="#2F2E41"/>
<path d="M246.806 58.0329C246.806 58.0329 261.59 56.6477 264.952 59.2892C268.314 61.9307 275.518 114.28 275.518 114.28L246.806 115.901L241.659 112.359L243.12 86.2241L246.806 58.0329Z" fill="#CCCCCC"/>
<path d="M251.319 57.7068L235.01 58.0647L219.806 126.767L231.813 129.409L251.319 57.7068Z" fill="#2F2E41"/>
<path d="M262.912 57.1261L275.758 61.1467L275.028 89.3743L290.886 123.123L272.244 125.086L257.508 88.6446L262.912 57.1261Z" fill="#2F2E41"/>
<path d="M284.095 126.551C284.545 126.154 284.903 125.664 285.143 125.114C285.384 124.564 285.5 123.969 285.486 123.369C285.471 122.769 285.325 122.18 285.057 121.642C284.79 121.105 284.408 120.633 283.939 120.259L286.523 111.244L281.428 108.337L277.957 121.12C277.381 121.95 277.13 122.963 277.251 123.966C277.372 124.968 277.857 125.892 278.614 126.562C279.37 127.231 280.346 127.6 281.356 127.598C282.366 127.596 283.341 127.223 284.095 126.551Z" fill="#FFB8B8"/>
<path d="M268.314 61.9307L275.915 61.2714C275.915 61.2714 282.739 68.4084 284.291 73.9345C285.843 79.4606 287.524 96.7503 287.524 96.7503L286.823 122.044L277.938 116.01L277.342 94.2544L268.314 61.9307Z" fill="#2F2E41"/>
<path d="M266.48 49.2176C269.334 43.9961 267.415 37.4493 262.194 34.595C256.972 31.7406 250.425 33.6596 247.571 38.8812C244.717 44.1027 246.636 50.6495 251.857 53.5038C257.079 56.3582 263.626 54.4392 266.48 49.2176Z" fill="#FFB8B8"/>
<path d="M255.824 39.5512C254.411 39.2245 252.943 39.5865 251.511 39.8212C250.079 40.0558 248.501 40.1332 247.29 39.3343C246.396 38.7443 245.846 37.7682 245.329 36.8293C245.114 36.494 244.97 36.1177 244.908 35.7241C244.847 35.0297 245.288 34.3962 245.758 33.8806C247.936 31.4857 251.12 30.1749 254.331 29.7585C256.979 29.3639 259.684 29.6942 262.159 30.7145C264.597 31.7835 266.692 33.7412 267.65 36.2241C268.092 37.4949 268.367 38.8174 268.47 40.1587C268.615 41.1456 268.634 42.1469 268.526 43.1384C268.396 43.8735 268.203 44.5959 267.948 45.2972L266.361 50.0903C266.247 50.5432 266.033 50.9652 265.737 51.3258C265.584 51.5024 265.378 51.6248 265.15 51.6748C264.922 51.7247 264.684 51.6995 264.472 51.6028C264.599 51.0822 264.618 50.5411 264.529 50.0128C264.479 49.7495 264.352 49.5071 264.163 49.3168C263.975 49.1265 263.733 48.9971 263.47 48.9452C262.885 48.8831 262.385 49.3366 261.83 49.532C261.576 49.6073 261.31 49.6318 261.047 49.6042C260.783 49.5765 260.528 49.4973 260.295 49.3709C260.062 49.2445 259.856 49.0735 259.689 48.8677C259.523 48.6618 259.398 48.4251 259.323 48.1711C259.308 48.1199 259.294 48.0682 259.283 48.0159C259.196 47.4679 259.343 46.8813 259.135 46.3667C258.892 45.7638 258.247 45.4479 257.762 45.0146C257.319 44.6064 257.003 44.0803 256.849 43.4983C256.695 42.9163 256.711 42.3025 256.894 41.7291C257.024 41.3302 257.391 41.1489 257.317 40.6906C257.221 40.0895 256.335 39.6691 255.824 39.5512Z" fill="#2F2E41"/>
<path d="M136.032 85.0979H0V0H136.032V85.0979Z" fill="white"/>
<path d="M136.032 85.0979H0V0H136.032V85.0979ZM0.621154 84.4767H135.411V0.621154H0.621154V84.4767Z" fill="#3F3D56"/>
<path d="M119.417 202.962H41.7725V117.864H119.417V202.962Z" fill="white"/>
<path d="M119.417 202.962H41.7725V117.864H119.417V202.962ZM42.3936 202.341H118.795V118.485H42.3936V202.341Z" fill="#3F3D56"/>
<path d="M108.857 194.924H92.707V195.579H108.857V194.924Z" fill="#3F3D56"/>
<path d="M108.857 196.889H92.707V197.543H108.857V196.889Z" fill="#3F3D56"/>
<path d="M108.857 198.853H92.707V199.507H108.857V198.853Z" fill="#3F3D56"/>
<path d="M80.5945 133.082V139.915C84.6487 139.915 88.6118 141.117 91.9826 143.369C95.3535 145.622 97.9808 148.823 99.5322 152.568C101.084 156.314 101.49 160.435 100.699 164.412C99.9078 168.388 97.9555 172.04 95.0888 174.907L99.9203 179.738C103.743 175.916 106.346 171.046 107.4 165.745C108.455 160.443 107.913 154.948 105.845 149.954C103.776 144.96 100.273 140.691 95.7787 137.688C91.2842 134.685 86 133.082 80.5945 133.082Z" fill="#FFB8B8"/>
<path d="M99.9203 179.738L95.0888 174.907C91.5843 178.412 86.9282 180.528 81.9829 180.864C77.0377 181.199 72.1385 179.731 68.1929 176.731L64.0574 182.172C69.319 186.171 75.8515 188.128 82.4452 187.681C89.0389 187.233 95.2471 184.412 99.9203 179.738Z" fill="#FF7575"/>
<path d="M60.0965 160.413C60.0965 157.721 60.6267 155.055 61.6568 152.568C62.6869 150.082 64.1968 147.822 66.1002 145.918C68.0037 144.015 70.2633 142.505 72.7503 141.475C75.2372 140.445 77.9027 139.915 80.5945 139.915V133.082C74.8732 133.082 69.296 134.877 64.6493 138.215C60.0025 141.553 56.5205 146.265 54.694 151.687C52.8674 157.109 52.7886 162.968 54.4684 168.437C56.1483 173.906 59.5022 178.71 64.0574 182.172L68.193 176.731C65.6749 174.821 63.6335 172.353 62.2288 169.522C60.8241 166.691 60.0942 163.573 60.0965 160.413Z" fill="#920000"/>
<path d="M234.33 150.164H156.686V65.0657H234.33V150.164Z" fill="white"/>
<path d="M234.33 150.164H156.686V65.0657H234.33V150.164ZM157.307 149.543H233.709V65.6868H157.307V149.543Z" fill="#3F3D56"/>
<path d="M181.842 117.087H167.866V139.449H181.842V117.087Z" fill="#FFB8B8"/>
<path d="M202.03 101.869H188.054V139.449H202.03V101.869Z" fill="#FF7575"/>
<path d="M222.217 84.1663H208.241V139.449H222.217V84.1663Z" fill="#920000"/>
<path d="M226.876 140.07H164.14V75.1595H164.761V139.449H226.876V140.07Z" fill="#3F3D56"/>
<path d="M211.75 67.3314C214.113 67.3314 216.028 65.4162 216.028 63.0537C216.028 60.6913 214.113 58.7761 211.75 58.7761C209.388 58.7761 207.473 60.6913 207.473 63.0537C207.473 65.4162 209.388 67.3314 211.75 67.3314Z" fill="#FFB8B8"/>
<path d="M299.644 209.96H232.984C232.889 209.96 232.799 209.922 232.732 209.855C232.665 209.788 232.628 209.698 232.628 209.603C232.628 209.509 232.665 209.418 232.732 209.351C232.799 209.284 232.889 209.247 232.984 209.247H299.644C299.738 209.247 299.829 209.284 299.896 209.351C299.962 209.418 300 209.509 300 209.603C300 209.698 299.962 209.788 299.896 209.855C299.829 209.922 299.738 209.96 299.644 209.96Z" fill="#CCCCCC"/>
<path d="M117.141 67.3007H18.8916C18.8101 67.3007 18.7319 67.2683 18.6742 67.2106C18.6166 67.153 18.5842 67.0748 18.5842 66.9932V19.9024C18.5842 19.8209 18.6166 19.7427 18.6742 19.685C18.7319 19.6274 18.8101 19.595 18.8916 19.595C18.9732 19.595 19.0514 19.6274 19.1091 19.685C19.1667 19.7427 19.1991 19.8209 19.1991 19.9024V66.6858H117.141C117.181 66.6856 117.221 66.6935 117.259 66.7089C117.296 66.7243 117.33 66.7469 117.359 66.7754C117.387 66.804 117.41 66.838 117.426 66.8753C117.441 66.9127 117.449 66.9528 117.449 66.9932C117.449 67.0337 117.441 67.0738 117.426 67.1111C117.41 67.1485 117.387 67.1825 117.359 67.211C117.33 67.2396 117.296 67.2622 117.259 67.2776C117.221 67.293 117.181 67.3008 117.141 67.3007Z" fill="#3F3D56"/>
<path d="M39.8832 63.9184H30.9471C30.7051 63.9181 30.4731 63.8219 30.302 63.6508C30.1309 63.4797 30.0346 63.2477 30.0343 63.0057V50.6872C30.0346 50.4452 30.1309 50.2132 30.302 50.0421C30.4731 49.8711 30.7051 49.7748 30.9471 49.7745H39.8832C40.1252 49.7748 40.3572 49.8711 40.5283 50.0421C40.6994 50.2132 40.7957 50.4452 40.796 50.6872V63.0057C40.7957 63.2477 40.6994 63.4797 40.5283 63.6508C40.3572 63.8219 40.1252 63.9181 39.8832 63.9184Z" fill="#920000"/>
<path d="M56.1794 63.9185H47.2432C47.0013 63.9182 46.7693 63.8219 46.5982 63.6509C46.427 63.4798 46.3308 63.2478 46.3305 63.0058V39.0032C46.3308 38.7613 46.427 38.5293 46.5982 38.3582C46.7693 38.1871 47.0013 38.0908 47.2432 38.0906H56.1794C56.4214 38.0908 56.6533 38.1871 56.8245 38.3582C56.9956 38.5293 57.0918 38.7613 57.0921 39.0032V63.0058C57.0918 63.2478 56.9956 63.4798 56.8245 63.6509C56.6533 63.8219 56.4214 63.9182 56.1794 63.9185Z" fill="#920000"/>
<path d="M72.4755 63.9184H63.5394C63.2974 63.9181 63.0654 63.8219 62.8943 63.6508C62.7232 63.4797 62.6269 63.2477 62.6266 63.0057V50.6872C62.6269 50.4452 62.7232 50.2132 62.8943 50.0421C63.0654 49.8711 63.2974 49.7748 63.5394 49.7745H72.4755C72.7175 49.7748 72.9495 49.8711 73.1206 50.0421C73.2917 50.2132 73.388 50.4452 73.3883 50.6872V63.0057C73.388 63.2477 73.2917 63.4797 73.1206 63.6508C72.9495 63.8219 72.7175 63.9181 72.4755 63.9184Z" fill="#920000"/>
<path d="M88.7717 63.9185H79.8356C79.5991 63.9236 79.3703 63.8347 79.1992 63.6714C79.0281 63.5081 78.9287 63.2836 78.9228 63.0472V34.3498C78.9287 34.1134 79.0281 33.8889 79.1992 33.7256C79.3703 33.5622 79.5991 33.4734 79.8356 33.4785H88.7717C89.0082 33.4734 89.237 33.5622 89.4081 33.7256C89.5792 33.8889 89.6785 34.1134 89.6844 34.3498V63.0472C89.6785 63.2836 89.5792 63.5081 89.4081 63.6714C89.237 63.8347 89.0082 63.9236 88.7717 63.9185Z" fill="#920000"/>
<path d="M105.068 63.9185H96.1317C95.8897 63.9182 95.6578 63.8219 95.4866 63.6509C95.3155 63.4798 95.2193 63.2478 95.219 63.0058V26.0893C95.2193 25.8473 95.3155 25.6153 95.4866 25.4442C95.6578 25.2731 95.8897 25.1769 96.1317 25.1766H105.068C105.31 25.1769 105.542 25.2731 105.713 25.4442C105.884 25.6153 105.98 25.8473 105.981 26.0893V63.0058C105.98 63.2478 105.884 63.4798 105.713 63.6509C105.542 63.8219 105.31 63.9182 105.068 63.9185Z" fill="#920000"/>
<path d="M35.4151 46.085C36.434 46.085 37.26 45.259 37.26 44.2401C37.26 43.2212 36.434 42.3953 35.4151 42.3953C34.3962 42.3953 33.5703 43.2212 33.5703 44.2401C33.5703 45.259 34.3962 46.085 35.4151 46.085Z" fill="#3F3D56"/>
<path d="M51.7113 34.0934C52.7302 34.0934 53.5562 33.2674 53.5562 32.2485C53.5562 31.2297 52.7302 30.4037 51.7113 30.4037C50.6924 30.4037 49.8665 31.2297 49.8665 32.2485C49.8665 33.2674 50.6924 34.0934 51.7113 34.0934Z" fill="#3F3D56"/>
<path d="M68.0074 46.085C69.0263 46.085 69.8523 45.259 69.8523 44.2401C69.8523 43.2212 69.0263 42.3953 68.0074 42.3953C66.9886 42.3953 66.1626 43.2212 66.1626 44.2401C66.1626 45.259 66.9886 46.085 68.0074 46.085Z" fill="#3F3D56"/>
<path d="M84.3036 28.2513C85.3225 28.2513 86.1485 27.4254 86.1485 26.4065C86.1485 25.3876 85.3225 24.5616 84.3036 24.5616C83.2847 24.5616 82.4588 25.3876 82.4588 26.4065C82.4588 27.4254 83.2847 28.2513 84.3036 28.2513Z" fill="#3F3D56"/>
<path d="M100.6 21.4869C101.619 21.4869 102.445 20.661 102.445 19.6421C102.445 18.6232 101.619 17.7972 100.6 17.7972C99.5809 17.7972 98.7549 18.6232 98.7549 19.6421C98.7549 20.661 99.5809 21.4869 100.6 21.4869Z" fill="#3F3D56"/>
<path d="M68.0462 44.6534L51.7114 32.4183L35.5994 44.4862L35.2308 43.9939L51.7114 31.6498L67.9685 43.8267L84.124 26.1477L84.1888 26.1213L100.485 19.5552L100.715 20.1259L84.4833 26.6656L68.0462 44.6534Z" fill="#3F3D56"/>
</g>
<defs>
<clipPath id="clip0_12_131">
<rect width="300" height="209.96" fill="white"/>
</clipPath>
</defs>
</svg>
